<svg id="Layer_1" data-name="Layer 1" xmlns="http://www.w3.org/2000/svg" viewBox="0 0 444.08 194.67"><defs><style>.cls-1{fill:#1d1d1b;}.cls-2{fill:#fff;}.cls-3{fill:#96f;}.cls-4{fill:#3cc;}.cls-5{fill:#3b5aa9;}.cls-6{fill:#9695ca;}.cls-7{fill:#0f7ac0;}.cls-8{fill:#3c4ca0;}</style></defs><title>junto-seguros</title><path class="cls-1" d="M31.72,155.77c0,11.1-4.36,15.07-16.26,15.07H0v23H11.5c29.93,0,43.61-12.68,43.61-40.64V55.26H31.72Z"/><path class="cls-1" d="M136.79,109.58c0,12.69-7.93,21-19.23,21s-19.43-8.32-19.43-21V55.26H74.74v50.55c0,12.3,1.19,21.81,8.13,30.73a43.64,43.64,0,0,0,34.69,16.85c25,0,42.62-17,42.62-47.58V55.26H136.79Z"/><path class="cls-1" d="M221.24,53.48c-25,0-42.82,17.05-42.82,47.58v50.55h23.4V97.09c0-12.69,8.12-20.81,19.42-20.81s19.23,8.12,19.23,20.81v54.52h23.4V101.06c0-12.3-1.19-21.81-8.13-30.73a43.29,43.29,0,0,0-34.5-16.85"/><path class="cls-1" d="M306.29,30.08H282.9V111c0,27.95,13.88,40.64,43.81,40.64h6.54v-23h-10.5c-11.9,0-16.46-4-16.46-15.06V78.26h27v-23h-27Z"/><path class="cls-1" d="M394.3,53.48a49.78,49.78,0,1,0,49.78,49.78A49.77,49.77,0,0,0,394.3,53.48m0,76.66a26.89,26.89,0,1,1,26.89-26.88,26.88,26.88,0,0,1-26.89,26.88"/><path class="cls-1" d="M100.2,190.37,103,187a12.37,12.37,0,0,0,8.43,3.44c2.9,0,4.74-1.32,4.74-3.32v-.08c0-1.89-1.07-2.91-6-4-5.69-1.36-8.9-3-8.9-7.9v-.08c0-4.53,3.82-7.67,9.12-7.67a14.87,14.87,0,0,1,9.7,3.33l-2.52,3.51a12.26,12.26,0,0,0-7.25-2.72c-2.75,0-4.35,1.4-4.35,3.14v.07c0,2,1.22,2.95,6.33,4.16,5.65,1.36,8.59,3.36,8.59,7.75v.07c0,5-3.93,7.9-9.54,7.9a16.6,16.6,0,0,1-11.15-4.23"/><polygon class="cls-1" points="145.55 167.77 165.36 167.77 165.36 171.93 150.25 171.93 150.25 178.81 163.64 178.81 163.64 182.96 150.25 182.96 150.25 190.06 165.55 190.06 165.55 194.22 145.55 194.22 145.55 167.77"/><path class="cls-1" d="M189.07,181.07V181a13.54,13.54,0,0,1,13.77-13.68,14.5,14.5,0,0,1,10.27,3.59l-3,3.51a10.51,10.51,0,0,0-7.48-2.83c-4.92,0-8.66,4.27-8.66,9.33V181c0,5.44,3.62,9.44,9.08,9.44a11,11,0,0,0,6.45-2v-4.95h-6.83v-4h11.37v11.11a17.11,17.11,0,0,1-11.14,4.11c-8.36,0-13.85-5.89-13.85-13.6"/><path class="cls-1" d="M238.88,183V167.77h4.69v15c0,4.91,2.56,7.56,6.76,7.56S257,187.87,257,183V167.77h4.7v15c0,7.9-4.5,11.87-11.49,11.87s-11.37-4-11.37-11.64"/><path class="cls-1" d="M287.32,167.77h11.9c3.36,0,6,1,7.71,2.65a8,8,0,0,1,2.22,5.7v.08c0,4.34-2.64,7-6.38,8l7.22,10h-5.54L297.89,185H292v9.22h-4.69Zm11.56,13.11c3.36,0,5.5-1.74,5.5-4.42v-.07c0-2.84-2.07-4.39-5.54-4.39H292v8.88Z"/><path class="cls-1" d="M332.85,181.07V181a14,14,0,0,1,27.94-.08V181a14,14,0,0,1-27.94.07m23,0V181a9.11,9.11,0,0,0-9.09-9.41c-5.3,0-9,4.19-9,9.33V181a9.1,9.1,0,0,0,9.08,9.41c5.31,0,9-4.2,9-9.34"/><path class="cls-1" d="M383.63,190.37l2.82-3.33a12.37,12.37,0,0,0,8.43,3.44c2.9,0,4.74-1.32,4.74-3.32v-.08c0-1.89-1.07-2.91-6-4-5.69-1.36-8.9-3-8.9-7.9v-.08c0-4.53,3.82-7.67,9.13-7.67a14.87,14.87,0,0,1,9.69,3.33L401,174.23a12.24,12.24,0,0,0-7.25-2.72c-2.75,0-4.35,1.4-4.35,3.14v.07c0,2,1.22,2.95,6.33,4.16,5.65,1.36,8.59,3.36,8.59,7.75v.07c0,5-3.93,7.9-9.54,7.9a16.55,16.55,0,0,1-11.14-4.23"/><path class="cls-2" d="M48.45,11.07c0-.25,0-.49,0-.74A10.32,10.32,0,0,0,27.91,9.05a13.32,13.32,0,0,0,1.54,26.41,16.53,16.53,0,1,0,19-24.39"/><path class="cls-3" d="M38.15,0A10.32,10.32,0,0,0,27.91,9.05a10.71,10.71,0,0,0-.09,1.28,10.33,10.33,0,0,0,20.63.74c0-.25,0-.49,0-.74A10.33,10.33,0,0,0,38.15,0"/><path class="cls-4" d="M48.45,11.07A16.54,16.54,0,1,0,60.1,26.87a16.49,16.49,0,0,0-11.65-15.8"/><path class="cls-5" d="M38,11.32a13.32,13.32,0,0,1,5.29,8,10.31,10.31,0,0,0,5.2-8.24A16.42,16.42,0,0,0,38,11.32"/><path class="cls-6" d="M43.25,19.31a13.36,13.36,0,0,0-13-10.48A13.5,13.5,0,0,0,27.91,9a13.32,13.32,0,0,0,1.54,26.42c.25,0,.51,0,.77,0A13.33,13.33,0,0,0,43.56,22.17a13.47,13.47,0,0,0-.31-2.86"/><path class="cls-7" d="M30.29,17A16.57,16.57,0,0,1,38,11.32a13.26,13.26,0,0,0-7.74-2.49,12.56,12.56,0,0,0-2.31.22,10.71,10.71,0,0,0-.09,1.28A10.29,10.29,0,0,0,30.29,17"/><path class="cls-7" d="M43.56,22.17a13.47,13.47,0,0,0-.31-2.86,10.32,10.32,0,0,1-13-2.28,16.42,16.42,0,0,0-.84,18.43c.26,0,.51,0,.77,0A13.33,13.33,0,0,0,43.56,22.17"/><path class="cls-8" d="M38,11.32A16.63,16.63,0,0,0,30.29,17a10.32,10.32,0,0,0,13,2.28,13.32,13.32,0,0,0-5.29-8"/></svg>